<?xml version="1.0" encoding="UTF-8"?><svg xmlns="http://www.w3.org/2000/svg" width="1000" height="1000" version="1.1"><line x1="100" y1="100" x2="100" y2="600" stroke="blue"/><line x1="100" y1="600" x2="1000" y2="600" stroke="blue"/><text stroke="blue" x="120" y="620">Casablanca</text><rect width="20" height="200" x="120" y="400" strok="blue" fill="orange"><animate attributeName="height" dur="3s" values="0;200;0" repeatCount="indefinite"/><animate attributeName="y" dur="3s" values="600;400;600" repeatCount="indefinite"/></rect><text x="120" y="390">20</text><text stroke="blue" x="240" y="620">Marrakech</text><rect width="20" height="300" x="240" y="300" strok="blue" fill="orange"><animate attributeName="height" dur="3s" values="0;300;0" repeatCount="indefinite"/><animate attributeName="y" dur="3s" values="600;300;600" repeatCount="indefinite"/></rect><text x="240" y="290">30</text><text stroke="blue" x="360" y="620">Mohammedia</text><rect width="20" height="220" x="360" y="380" strok="blue" fill="orange"><animate attributeName="height" dur="3s" values="0;220;0" repeatCount="indefinite"/><animate attributeName="y" dur="3s" values="600;380;600" repeatCount="indefinite"/></rect><text x="360" y="370">22</text><text stroke="blue" x="480" y="620">Tanger</text><rect width="20" height="210" x="480" y="390" strok="blue" fill="orange"><animate attributeName="height" dur="3s" values="0;210;0" repeatCount="indefinite"/><animate attributeName="y" dur="3s" values="600;390;600" repeatCount="indefinite"/></rect><text x="480" y="380">21</text><text stroke="blue" x="600" y="620">Agadir</text><rect width="20" height="260" x="600" y="340" strok="blue" fill="orange"><animate attributeName="height" dur="3s" values="0;260;0" repeatCount="indefinite"/><animate attributeName="y" dur="3s" values="600;340;600" repeatCount="indefinite"/></rect><text x="600" y="330">26</text><text stroke="blue" x="720" y="620">Laayoune</text><rect width="20" height="380" x="720" y="220" strok="blue" fill="orange"><animate attributeName="height" dur="3s" values="0;380;0" repeatCount="indefinite"/><animate attributeName="y" dur="3s" values="600;220;600" repeatCount="indefinite"/></rect><text x="720" y="210">38</text><text stroke="blue" x="840" y="620">Oujda</text><rect width="20" height="310" x="840" y="290" strok="blue" fill="orange"><animate attributeName="height" dur="3s" values="0;310;0" repeatCount="indefinite"/><animate attributeName="y" dur="3s" values="600;290;600" repeatCount="indefinite"/></rect><text x="840" y="280">31</text></svg>